<svg width="1440" height="1024" viewBox="0 0 1440 1024" fill="none" xmlns="http://www.w3.org/2000/svg">
<g filter="url(#filter0_f_25_3)">
<path d="M-19.8511 742.476C-516.5 1718.5 1026.69 374.171 1366 192.5C1895.5 -91 463.5 1023.5 -53.1262 -4.6409C850.494 -261.067 1183.82 714.326 1244.32 1204.83C1888.32 1131.33 270 -397 -19.8511 742.476Z" fill="url(#paint0_linear_25_3)"/>
<path d="M-19.4054 742.703L-19.3802 742.653L-19.3665 742.6C16.8484 600.23 73.7991 499.573 144.446 432.537C183.586 395.397 226.94 368.567 273.32 350.682C333.549 383.451 396.589 406.109 460.915 420.53C577.121 446.581 697.51 445.746 813.09 429.096C852.556 449.61 891.42 472.459 929.194 497.082C746.282 632.142 540.064 784.31 359.318 901.204C267.792 960.396 182.812 1010.54 110.705 1044.83C74.652 1061.97 41.8272 1075.15 13.0193 1083.52C-15.7947 1091.89 -40.5576 1095.44 -60.4994 1093.35C-80.4269 1091.27 -95.5071 1083.56 -105.045 1069.44C-114.595 1055.31 -118.645 1034.65 -116.314 1006.56C-111.651 950.373 -81.4834 864.7 -19.4054 742.703ZM390.476 323.168C349.916 326.683 310.682 335.252 273.392 349.583C147.977 281.238 34.7739 168.941 -52.4077 -4.32491C173.149 -68.2179 363.107 -55.3013 522.122 7.64679C681.281 70.6515 809.483 183.794 911.366 320.294C929.961 345.208 947.68 370.899 964.549 397.205C915.615 409.991 864.92 420.606 813.266 428.06C672.639 355.01 524.336 311.566 390.476 323.168ZM936.769 492.732C956.886 477.878 976.71 463.242 996.176 448.893C1025.69 499.442 1052.31 551.773 1076.2 604.817C1040.16 574.637 1002.13 545.598 962.713 518.374C952.219 511.127 941.627 504.009 930.946 497.032C931.692 496.481 932.437 495.931 933.181 495.381L936.769 492.732ZM996.478 447.428C986.684 430.684 976.572 414.137 966.133 397.824C994.36 390.421 1022 382.298 1048.89 373.646C1081.58 363.128 1113.16 351.828 1143.38 340.086C1097.79 372.925 1048.41 409.152 996.478 447.428ZM1440 186.271C1385.64 225.165 1281.39 284.662 1150.4 336.264C1241.33 270.889 1316.65 219.49 1366.24 192.941C1399.32 175.226 1424.74 162.977 1443.19 155.324C1452.41 151.498 1459.89 148.824 1465.71 147.191C1471.54 145.553 1475.65 144.979 1478.17 145.299C1479.43 145.459 1480.21 145.832 1480.64 146.32C1481.05 146.788 1481.21 147.453 1481.02 148.399C1480.83 149.355 1480.29 150.546 1479.38 151.967C1478.46 153.382 1477.19 154.998 1475.56 156.802C1469.04 164.028 1456.96 174.138 1440 186.271ZM1244.76 1204.27C1224.29 1038.78 1172.81 818.224 1078.9 608.391C1205.98 715.419 1307.96 836.451 1358.79 941.555C1391.61 1009.42 1403.06 1070.54 1386.32 1116.95C1369.62 1163.21 1324.84 1195.02 1244.76 1204.27Z" stroke="white"/>
</g>
<defs>
<filter id="filter0_f_25_3" x="-127.458" y="-56.8592" width="1619.06" height="1271.69" filterUnits="userSpaceOnUse" color-interpolation-filters="sRGB">
<feFlood flood-opacity="0" result="BackgroundImageFix"/>
<feBlend mode="normal" in="SourceGraphic" in2="BackgroundImageFix" result="shape"/>
<feGaussianBlur stdDeviation="5" result="effect1_foregroundBlur_25_3"/>
</filter>
<linearGradient id="paint0_linear_25_3" x1="798.811" y1="-70.3662" x2="382.698" y2="1275.4" gradientUnits="userSpaceOnUse">
<stop offset="0.212246" stop-color="#415A49"/>
<stop offset="1" stop-color="#898989"/>
</linearGradient>
</defs>
</svg>
